<svg aria-hidden="true" style="position:absolute;width:0;height:0;overflow:hidden" xmlns="http://www.w3.org/2000/svg"><defs><symbol id="icon-instagram" viewBox="0 0 32 32"><path d="M16 2.881c4.275 0 4.781.019 6.462.094 1.563.069 2.406.331 2.969.55a4.952 4.952 0 0 1 1.837 1.194 5.015 5.015 0 0 1 1.2 1.838c.219.563.481 1.412.55 2.969.075 1.688.094 2.194.094 6.463s-.019 4.781-.094 6.463c-.069 1.563-.331 2.406-.55 2.969a4.94 4.94 0 0 1-1.194 1.837 5.02 5.02 0 0 1-1.837 1.2c-.563.219-1.413.481-2.969.55-1.688.075-2.194.094-6.463.094s-4.781-.019-6.463-.094c-1.563-.069-2.406-.331-2.969-.55a4.952 4.952 0 0 1-1.838-1.194 5.02 5.02 0 0 1-1.2-1.837c-.219-.563-.481-1.413-.55-2.969-.075-1.688-.094-2.194-.094-6.463s.019-4.781.094-6.463c.069-1.563.331-2.406.55-2.969a4.964 4.964 0 0 1 1.194-1.838 5.015 5.015 0 0 1 1.838-1.2c.563-.219 1.412-.481 2.969-.55 1.681-.075 2.188-.094 6.463-.094zM16 0c-4.344 0-4.887.019-6.594.094-1.7.075-2.869.35-3.881.744-1.056.412-1.95.956-2.837 1.85a7.833 7.833 0 0 0-1.85 2.831C.444 6.538.169 7.7.094 9.4.019 11.113 0 11.656 0 16s.019 4.887.094 6.594c.075 1.7.35 2.869.744 3.881.413 1.056.956 1.95 1.85 2.837a7.82 7.82 0 0 0 2.831 1.844c1.019.394 2.181.669 3.881.744 1.706.075 2.25.094 6.594.094s4.888-.019 6.594-.094c1.7-.075 2.869-.35 3.881-.744 1.05-.406 1.944-.956 2.831-1.844s1.438-1.781 1.844-2.831c.394-1.019.669-2.181.744-3.881.075-1.706.094-2.25.094-6.594s-.019-4.887-.094-6.594c-.075-1.7-.35-2.869-.744-3.881a7.506 7.506 0 0 0-1.831-2.844A7.82 7.82 0 0 0 26.482.843C25.463.449 24.301.174 22.601.099c-1.712-.081-2.256-.1-6.6-.1z"/><path d="M16 7.781c-4.537 0-8.219 3.681-8.219 8.219s3.681 8.219 8.219 8.219 8.219-3.681 8.219-8.219A8.221 8.221 0 0 0 16 7.781zm0 13.55a5.331 5.331 0 1 1 0-10.663 5.331 5.331 0 0 1 0 10.663zM26.462 7.456a1.919 1.919 0 1 1-3.838 0 1.919 1.919 0 0 1 3.838 0z"/></symbol><symbol id="icon-whatsapp" viewBox="0 0 32 32"><path d="M27.281 4.65C24.287 1.65 20.306 0 16.062 0 7.324 0 .212 7.112.212 15.856c0 2.794.731 5.525 2.119 7.925L.081 32l8.406-2.206a15.858 15.858 0 0 0 7.575 1.931h.006c8.738 0 15.856-7.113 15.856-15.856 0-4.238-1.65-8.219-4.644-11.219zm-11.212 24.4a13.17 13.17 0 0 1-6.713-1.837l-.481-.288-4.987 1.306 1.331-4.863-.313-.5a13.086 13.086 0 0 1-2.019-7.012c0-7.269 5.912-13.181 13.188-13.181 3.519 0 6.831 1.375 9.319 3.862a13.108 13.108 0 0 1 3.856 9.325c-.006 7.275-5.919 13.188-13.181 13.188zm7.225-9.875c-.394-.2-2.344-1.156-2.706-1.288s-.625-.2-.894.2c-.262.394-1.025 1.288-1.256 1.556-.231.262-.462.3-.856.1s-1.675-.619-3.188-1.969c-1.175-1.05-1.975-2.35-2.206-2.744s-.025-.613.175-.806c.181-.175.394-.463.594-.694s.262-.394.394-.662c.131-.262.069-.494-.031-.694s-.894-2.15-1.219-2.944c-.319-.775-.65-.669-.894-.681-.231-.012-.494-.012-.756-.012s-.694.1-1.056.494c-.363.394-1.387 1.356-1.387 3.306s1.419 3.831 1.619 4.1c.2.262 2.794 4.269 6.769 5.981.944.406 1.681.65 2.256.837.95.3 1.813.256 2.494.156.762-.113 2.344-.956 2.675-1.881s.331-1.719.231-1.881c-.094-.175-.356-.275-.756-.475z"/></symbol><symbol id="icon-telegram" viewBox="0 0 32 32"><path d="M16 0C7.162 0 0 7.162 0 16s7.162 16 16 16 16-7.163 16-16S24.837 0 16 0zm7.863 10.969-2.625 12.369c-.181.881-.712 1.087-1.45.681l-4-2.956-1.919 1.869c-.225.219-.4.4-.8.4-.519 0-.431-.194-.606-.688L11.1 18.169l-3.956-1.231c-.856-.262-.862-.85.194-1.269l15.412-5.95c.7-.319 1.381.169 1.113 1.25z"/></symbol><symbol id="icon-catalog" viewBox="0 0 30 32"><path fill="none" stroke="#373d43" style="stroke:var(--color1, #373d43)" stroke-width="1.882" d="M.941 3.043h9.412v9.412H.941V3.043zm0 16.941h9.412v9.412H.941v-9.412zm15.059 0h9.412v9.412H16v-9.412z"/><path fill="#fbdd37" style="fill:var(--color2, #fbdd37);stroke:var(--color2, #fbdd37)" stroke="#fbdd37" stroke-width="1.882" d="m20.886 1.331 6.386 6.386-6.386 6.386L14.5 7.717l6.386-6.386z"/></symbol><symbol id="icon-search" viewBox="0 0 32 32"><path d="m30.977 29.147-7.616-7.921a12.88 12.88 0 0 0 3.031-8.306C26.392 5.796 20.596 0 13.472 0S.552 5.796.552 12.92s5.796 12.92 12.92 12.92c2.674 0 5.223-.807 7.402-2.338l7.674 7.981c.321.333.752.517 1.214.517.438 0 .853-.167 1.168-.47a1.688 1.688 0 0 0 .047-2.383zM13.472 3.37c5.266 0 9.55 4.284 9.55 9.55s-4.284 9.55-9.55 9.55c-5.266 0-9.55-4.284-9.55-9.55s4.284-9.55 9.55-9.55z"/></symbol><symbol id="icon-cards" viewBox="0 0 31 32"><path d="M29.567 15.002 15.787.837C15.244.279 14.533 0 13.821 0s-1.423.279-1.966.837L4.308 8.592c-1.086 1.116-1.086 2.96 0 4.076l1.251 1.321h2.885l-2.693-2.804c-.189-.195-.217-.438-.217-.556s.028-.353.217-.546l.996-.993 4.736 4.899h4.543L9.019 6.751l4.279-4.415c.189-.194.409-.231.523-.231s.335.024.523.218l13.781 14.163c.189.195.218.419.218.537s-.049.343-.238.538l-.781.784v2.965l2.225-2.266c1.085-1.118 1.105-2.927.018-4.043z"/><path d="M23.101 15.317H3.61c-1.535 0-2.848 1.271-2.848 2.849v7.577h25.084v-7.577c0-1.578-1.21-2.849-2.745-2.849zM7.574 23.163a1.986 1.986 0 0 1-1.4-.582 1.988 1.988 0 0 1-1.4.582c-1.117 0-2.023-.93-2.023-2.08 0-1.148.906-2.079 2.023-2.079.544 0 1.037.222 1.4.581a1.985 1.985 0 0 1 1.4-.581c1.117 0 2.023.931 2.023 2.079 0 1.15-.906 2.08-2.023 2.08zM.762 29.134C.762 30.712 2.074 32 3.61 32h19.491c1.535 0 2.746-1.288 2.746-2.866v-.168H.762v.168z"/></symbol><symbol id="icon-shop" viewBox="0 0 36 32"><path d="M28.01 28.605c0 .774.274 1.433.821 1.98s1.207.821 1.981.821c.773 0 1.433-.274 1.98-.821s.821-1.207.821-1.98-.274-1.433-.821-1.981a2.698 2.698 0 0 0-1.98-.82c-.774 0-1.434.274-1.981.82s-.821 1.207-.821 1.981z"/><path d="M35.998 3.811a1.346 1.346 0 0 0-.985-.416H8.731a16.65 16.65 0 0 0-.099-.558l-.12-.646c-.029-.16-.084-.353-.164-.58s-.175-.405-.284-.536c-.109-.132-.255-.244-.438-.34s-.39-.142-.624-.142H1.4c-.38 0-.708.139-.985.416s-.416.606-.416.985.139.708.416.985c.277.277.606.416.985.416h4.464l3.873 18.01c-.029.058-.178.335-.449.832s-.485.93-.645 1.302c-.16.372-.241.66-.241.864 0 .379.139.708.416.985.278.276.606.415.985.415h22.408c.379 0 .708-.139.985-.415.278-.278.416-.606.416-.985s-.138-.708-.416-.985a1.346 1.346 0 0 0-.985-.416H12.079c.35-.7.525-1.167.525-1.4 0-.146-.018-.307-.055-.482s-.08-.368-.131-.58a5.327 5.327 0 0 1-.098-.47l22.847-2.67c.364-.044.664-.2.897-.471s.35-.58.35-.93V4.795c0-.379-.138-.708-.416-.985zM8.403 28.605c0 .774.273 1.433.821 1.98s1.207.821 1.981.821c.773 0 1.433-.274 1.98-.821s.821-1.207.821-1.98-.273-1.433-.821-1.981c-.547-.547-1.207-.82-1.98-.82s-1.434.274-1.981.82a2.7 2.7 0 0 0-.821 1.981z"/></symbol><symbol id="icon-car" viewBox="0 0 46 32"><path d="M1.598 21.178V2.327c0-1.048.873-1.897 1.949-1.897h19.365c1.077 0 1.949.849 1.949 1.897v18.851a.641.641 0 0 1-.65.632H2.247a.641.641 0 0 1-.65-.632zm15.638 6.458c0 2.173-1.81 3.934-4.043 3.934S9.15 29.809 9.15 27.636s1.81-3.934 4.043-3.934 4.043 1.761 4.043 3.934zm-2.022 0c0-1.086-.905-1.967-2.022-1.967s-2.022.881-2.022 1.967.905 1.967 2.022 1.967 2.022-.881 2.022-1.967zM9.71 23.702H.65a.641.641 0 0 0-.65.632v1.918c0 .349.291.632.65.632h7.262a5.155 5.155 0 0 1 1.798-3.183zm28.681 3.934c0 2.173-1.81 3.934-4.043 3.934s-4.043-1.761-4.043-3.934 1.81-3.934 4.043-3.934 4.043 1.761 4.043 3.934zm-2.022 0c0-1.086-.905-1.967-2.022-1.967s-2.022.881-2.022 1.967.905 1.967 2.022 1.967 2.022-.881 2.022-1.967zm9.169-3.302v1.918a.641.641 0 0 1-.65.632h-5.261c-.376-2.511-2.597-4.447-5.28-4.447s-4.904 1.936-5.281 4.447H18.472a5.155 5.155 0 0 0-1.798-3.183h10.045V5.617c0-.698.582-1.264 1.3-1.264h6.135c1.727 0 3.342.835 4.308 2.228l3.955 5.699c.58.836.89 1.822.89 2.83v8.592h1.581c.359 0 .65.283.65.632zm-6.592-11.908-3.162-4.372a.656.656 0 0 0-.531-.268H30.32a.641.641 0 0 0-.65.632v4.372c0 .349.291.632.65.632h8.096c.526 0 .834-.577.531-.996z"/></symbol><symbol id="icon-close" viewBox="0 0 32 32"><path d="M3.232 0 0 3.232l12.433 12.433L.311 27.787l3.232 3.233 12.122-12.122 11.811 11.811 3.232-3.232-11.811-11.811L31.018 3.545 27.786.313 15.665 12.434 3.232.001z"/></symbol><symbol id="icon-checkmark" viewBox="0 0 32 32"><path d="M27 4 12 19l-7-7-5 5 12 12L32 9z"/></symbol><symbol id="icon-circle-down" viewBox="0 0 32 32"><path d="M32 16c0-8.837-7.163-16-16-16S0 7.163 0 16s7.163 16 16 16 16-7.163 16-16zM3 16C3 8.82 8.82 3 16 3s13 5.82 13 13-5.82 13-13 13S3 23.18 3 16z"/><path d="m9.914 11.086-2.829 2.829 8.914 8.914 8.914-8.914-2.828-2.828-6.086 6.086z"/></symbol><symbol id="icon-vinok" viewBox="0 0 99 32"><path d="M92.769 14.884c.883-1.127 1.041-2.192.791-3.15 4.219-.127 3.211-6.635 3.211-6.635-3.453 1.439-4.072 3.583-4.029 5.038-1.42-1.859-3.98-3.04-3.98-3.04-1.347 6.962 4.006 7.787 4.006 7.787zm-1.099 3.608c.73.454 1.408.644 2.032.644 3.311 0 5.111-5.366 5.111-5.366a12.282 12.282 0 0 0-1.007-.043c-5.926 0-6.136 4.765-6.136 4.765z"/><path d="M90.89 21.481c1.331-2.951-2-7.245-2-7.245-3.756 4.745-1.384 7.84-.399 8.808-.943 1-1.288 2.014-1.288 2.014 1.04 1.16 2.145 1.605 3.228 1.605 3.519 0 6.792-4.701 6.792-4.701-1.576-.604-2.92-.847-4.063-.847-.867 0-1.62.139-2.269.366zm-8.9 6.998c5.763-.489 3.104-8.601 3.104-8.601-6.28 3.921-3.104 8.601-3.104 8.601z"/><path d="M73.204 31.628a.774.774 0 0 1-.762-.645.775.775 0 0 1 .635-.89c8.296-1.392 14.028-4.614 17.031-9.577 2.147-3.548 2.47-7.358 2.364-9.931-.116-2.796-.744-4.745-.751-4.765a.774.774 0 0 1 1.47-.48c.028.087.701 2.173.826 5.18a21.208 21.208 0 0 1-.391 5.122 17.786 17.786 0 0 1-2.195 5.674c-3.247 5.365-9.337 8.831-18.097 10.301a.828.828 0 0 1-.129.01z"/><path d="M92.645 6.135C95.163 2.325 88.835 0 88.835 0c-.647 5.813 3.81 6.135 3.81 6.135zm-86.6 8.749c-.883-1.127-1.041-2.192-.791-3.15-4.219-.127-3.212-6.635-3.212-6.635 3.454 1.439 4.073 3.583 4.029 5.038 1.421-1.859 3.98-3.04 3.98-3.04 1.347 6.962-4.006 7.787-4.006 7.787zm1.098 3.608c-.73.454-1.408.644-2.032.644C1.8 19.136 0 13.77 0 13.77c.352-.029.688-.043 1.007-.043 5.926 0 6.135 4.765 6.135 4.765z"/><path d="M7.924 21.481c-1.331-2.951 2-7.245 2-7.245 3.756 4.745 1.384 7.84.398 8.808.943 1 1.288 2.014 1.288 2.014-1.04 1.16-2.145 1.605-3.227 1.605-3.519 0-6.792-4.701-6.792-4.701 1.576-.604 2.921-.847 4.064-.847.867 0 1.62.139 2.269.366zm8.9 6.998c-5.763-.489-3.104-8.601-3.104-8.601 6.28 3.921 3.104 8.601 3.104 8.601z"/><path d="M25.609 31.628c.37 0 .698-.267.762-.645a.775.775 0 0 0-.635-.89c-8.296-1.392-14.028-4.614-17.031-9.577-2.147-3.548-2.47-7.358-2.364-9.931.117-2.796.745-4.745.752-4.765a.774.774 0 0 0-1.47-.48c-.028.087-.701 2.173-.826 5.18a21.208 21.208 0 0 0 .391 5.122 17.786 17.786 0 0 0 2.195 5.674c3.248 5.365 9.337 8.831 18.097 10.301.044.007.087.01.129.01z"/><path d="M6.168 6.135C3.649 2.325 9.978 0 9.978 0c.646 5.813-3.81 6.135-3.81 6.135z"/></symbol><symbol id="icon-untitled" viewBox="0 0 39 32"><path d="M.125 27.448c0-.928.743-1.666 1.652-1.848 1.664-.333 2.94-1.102 3.828-2.308.967-1.312 1.531-3.313 1.694-6.003.057-.948-.721-1.72-1.671-1.72H1.72c-.95 0-1.72-.77-1.72-1.72V1.72C0 .77.77 0 1.72 0h13.25c.95 0 1.72.77 1.72 1.72v10.735c0 6.726-1.287 11.667-3.861 14.823-2.317 2.84-5.978 4.402-10.985 4.686-.949.054-1.72-.723-1.72-1.673v-2.843zm21.673 0c0-.928.743-1.666 1.652-1.848 1.664-.333 2.94-1.102 3.828-2.308.967-1.312 1.531-3.313 1.694-6.003.057-.948-.721-1.72-1.671-1.72h-3.908c-.95 0-1.72-.77-1.72-1.72V1.72c0-.95.77-1.72 1.72-1.72h13.25c.95 0 1.72.77 1.72 1.72v10.735c0 6.726-1.287 11.667-3.861 14.823-2.317 2.84-5.978 4.402-10.985 4.686-.949.054-1.72-.723-1.72-1.673v-2.843z"/></symbol><symbol id="icon-pacman" viewBox="0 0 32 32"><path d="M30.148 5.588A15.964 15.964 0 0 0 18 0C9.163 0 2 7.163 2 16s7.163 16 16 16c4.86 0 9.213-2.167 12.148-5.588L20 16 30.148 5.588zM22 3.769a2.231 2.231 0 1 1 0 4.462 2.231 2.231 0 0 1 0-4.462z"/></symbol><symbol id="icon-mascard" viewBox="0 0 50 32"><path d="M34.261.483a15.487 15.487 0 0 0-9.372 3.152A15.487 15.487 0 0 0 15.517.483C6.961.483 0 7.444 0 16s6.961 15.517 15.517 15.517c3.401 0 6.684-1.112 9.372-3.152a15.487 15.487 0 0 0 9.372 3.152c8.556 0 15.517-6.961 15.517-15.517S42.817.483 34.261.483zm-9.372 7.099c.481.536.915 1.112 1.299 1.721h-2.597c.383-.608.818-1.185 1.299-1.721zm-2.65 4.637h5.3c.238.757.403 1.533.494 2.322h-6.288c.091-.79.256-1.565.494-2.322zm-.494 5.239h6.288a12.515 12.515 0 0 1-.494 2.322h-5.3a12.435 12.435 0 0 1-.494-2.322zm3.144 6.959a12.705 12.705 0 0 1-1.299-1.721h2.597a12.845 12.845 0 0 1-1.298 1.721zm9.372 4.182a12.57 12.57 0 0 1-7.186-2.25 15.62 15.62 0 0 0 2.844-4.567c.74-1.84 1.115-3.786 1.115-5.783s-.375-3.942-1.115-5.783a15.6 15.6 0 0 0-2.844-4.567c2.1-1.46 4.601-2.25 7.186-2.25 6.948 0 12.6 5.652 12.6 12.6s-5.652 12.6-12.6 12.6z"/></symbol></defs></svg>