<svg aria-hidden="true" style="position: absolute; width: 0; height: 0; overflow: hidden;" version="1.1" xmlns="http://www.w3.org/2000/svg" xmlns:xlink="http://www.w3.org/1999/xlink">
<defs>
<symbol id="icon-instagram" viewBox="0 0 32 32">
<path d="M16 2.881c4.275 0 4.781 0.019 6.462 0.094 1.563 0.069 2.406 0.331 2.969 0.55 0.744 0.288 1.281 0.638 1.837 1.194 0.563 0.563 0.906 1.094 1.2 1.838 0.219 0.563 0.481 1.412 0.55 2.969 0.075 1.688 0.094 2.194 0.094 6.463s-0.019 4.781-0.094 6.463c-0.069 1.563-0.331 2.406-0.55 2.969-0.288 0.744-0.637 1.281-1.194 1.837-0.563 0.563-1.094 0.906-1.837 1.2-0.563 0.219-1.413 0.481-2.969 0.55-1.688 0.075-2.194 0.094-6.463 0.094s-4.781-0.019-6.463-0.094c-1.563-0.069-2.406-0.331-2.969-0.55-0.744-0.288-1.281-0.637-1.838-1.194-0.563-0.563-0.906-1.094-1.2-1.837-0.219-0.563-0.481-1.413-0.55-2.969-0.075-1.688-0.094-2.194-0.094-6.463s0.019-4.781 0.094-6.463c0.069-1.563 0.331-2.406 0.55-2.969 0.288-0.744 0.638-1.281 1.194-1.838 0.563-0.563 1.094-0.906 1.838-1.2 0.563-0.219 1.412-0.481 2.969-0.55 1.681-0.075 2.188-0.094 6.463-0.094zM16 0c-4.344 0-4.887 0.019-6.594 0.094-1.7 0.075-2.869 0.35-3.881 0.744-1.056 0.412-1.95 0.956-2.837 1.85-0.894 0.888-1.438 1.781-1.85 2.831-0.394 1.019-0.669 2.181-0.744 3.881-0.075 1.713-0.094 2.256-0.094 6.6s0.019 4.887 0.094 6.594c0.075 1.7 0.35 2.869 0.744 3.881 0.413 1.056 0.956 1.95 1.85 2.837 0.887 0.887 1.781 1.438 2.831 1.844 1.019 0.394 2.181 0.669 3.881 0.744 1.706 0.075 2.25 0.094 6.594 0.094s4.888-0.019 6.594-0.094c1.7-0.075 2.869-0.35 3.881-0.744 1.050-0.406 1.944-0.956 2.831-1.844s1.438-1.781 1.844-2.831c0.394-1.019 0.669-2.181 0.744-3.881 0.075-1.706 0.094-2.25 0.094-6.594s-0.019-4.887-0.094-6.594c-0.075-1.7-0.35-2.869-0.744-3.881-0.394-1.063-0.938-1.956-1.831-2.844-0.887-0.887-1.781-1.438-2.831-1.844-1.019-0.394-2.181-0.669-3.881-0.744-1.712-0.081-2.256-0.1-6.6-0.1v0z"></path>
<path d="M16 7.781c-4.537 0-8.219 3.681-8.219 8.219s3.681 8.219 8.219 8.219 8.219-3.681 8.219-8.219c0-4.537-3.681-8.219-8.219-8.219zM16 21.331c-2.944 0-5.331-2.387-5.331-5.331s2.387-5.331 5.331-5.331c2.944 0 5.331 2.387 5.331 5.331s-2.387 5.331-5.331 5.331z"></path>
<path d="M26.462 7.456c0 1.060-0.859 1.919-1.919 1.919s-1.919-0.859-1.919-1.919c0-1.060 0.859-1.919 1.919-1.919s1.919 0.859 1.919 1.919z"></path>
</symbol>
<symbol id="icon-whatsapp" viewBox="0 0 32 32">
<path d="M27.281 4.65c-2.994-3-6.975-4.65-11.219-4.65-8.738 0-15.85 7.112-15.85 15.856 0 2.794 0.731 5.525 2.119 7.925l-2.25 8.219 8.406-2.206c2.319 1.262 4.925 1.931 7.575 1.931h0.006c0 0 0 0 0 0 8.738 0 15.856-7.113 15.856-15.856 0-4.238-1.65-8.219-4.644-11.219zM16.069 29.050v0c-2.369 0-4.688-0.637-6.713-1.837l-0.481-0.288-4.987 1.306 1.331-4.863-0.313-0.5c-1.325-2.094-2.019-4.519-2.019-7.012 0-7.269 5.912-13.181 13.188-13.181 3.519 0 6.831 1.375 9.319 3.862 2.488 2.494 3.856 5.8 3.856 9.325-0.006 7.275-5.919 13.188-13.181 13.188zM23.294 19.175c-0.394-0.2-2.344-1.156-2.706-1.288s-0.625-0.2-0.894 0.2c-0.262 0.394-1.025 1.288-1.256 1.556-0.231 0.262-0.462 0.3-0.856 0.1s-1.675-0.619-3.188-1.969c-1.175-1.050-1.975-2.35-2.206-2.744s-0.025-0.613 0.175-0.806c0.181-0.175 0.394-0.463 0.594-0.694s0.262-0.394 0.394-0.662c0.131-0.262 0.069-0.494-0.031-0.694s-0.894-2.15-1.219-2.944c-0.319-0.775-0.65-0.669-0.894-0.681-0.231-0.012-0.494-0.012-0.756-0.012s-0.694 0.1-1.056 0.494c-0.363 0.394-1.387 1.356-1.387 3.306s1.419 3.831 1.619 4.1c0.2 0.262 2.794 4.269 6.769 5.981 0.944 0.406 1.681 0.65 2.256 0.837 0.95 0.3 1.813 0.256 2.494 0.156 0.762-0.113 2.344-0.956 2.675-1.881s0.331-1.719 0.231-1.881c-0.094-0.175-0.356-0.275-0.756-0.475z"></path>
</symbol>
<symbol id="icon-telegram" viewBox="0 0 32 32">
<path d="M16 0c-8.838 0-16 7.162-16 16s7.162 16 16 16 16-7.163 16-16-7.163-16-16-16zM23.863 10.969l-2.625 12.369c-0.181 0.881-0.712 1.087-1.45 0.681l-4-2.956-1.919 1.869c-0.225 0.219-0.4 0.4-0.8 0.4-0.519 0-0.431-0.194-0.606-0.688l-1.363-4.475-3.956-1.231c-0.856-0.262-0.862-0.85 0.194-1.269l15.412-5.95c0.7-0.319 1.381 0.169 1.113 1.25z"></path>
</symbol>

<symbol id="icon-catalog" viewBox="0 0 30 32">
<path fill="none" stroke="#373d43" style="stroke: var(--color1, #373d43)" stroke-linejoin="miter" stroke-linecap="butt" stroke-miterlimit="4" stroke-width="1.8824" d="M0.941 3.043h9.412v9.412h-9.412v-9.412z"></path>
<path fill="none" stroke="#373d43" style="stroke: var(--color1, #373d43)" stroke-linejoin="miter" stroke-linecap="butt" stroke-miterlimit="4" stroke-width="1.8824" d="M0.941 19.984h9.412v9.412h-9.412v-9.412z"></path>
<path fill="none" stroke="#373d43" style="stroke: var(--color1, #373d43)" stroke-linejoin="miter" stroke-linecap="butt" stroke-miterlimit="4" stroke-width="1.8824" d="M16 19.984h9.412v9.412h-9.412v-9.412z"></path>
<path fill="#fbdd37" style="fill: var(--color2, #fbdd37); stroke: var(--color2, #fbdd37)" stroke="#fbdd37" stroke-linejoin="miter" stroke-linecap="butt" stroke-miterlimit="4" stroke-width="1.8824" d="M20.886 1.331l6.386 6.386-6.386 6.386-6.386-6.386 6.386-6.386z"></path>
</symbol>
<symbol id="icon-search" viewBox="0 0 32 32">
<path d="M30.977 29.147l-7.616-7.921c1.958-2.328 3.031-5.257 3.031-8.306 0-7.124-5.796-12.92-12.92-12.92s-12.92 5.796-12.92 12.92c0 7.124 5.796 12.92 12.92 12.92 2.674 0 5.223-0.807 7.402-2.338l7.674 7.981c0.321 0.333 0.752 0.517 1.214 0.517 0.438 0 0.853-0.167 1.168-0.47 0.669-0.644 0.691-1.713 0.047-2.383zM13.472 3.37c5.266 0 9.55 4.284 9.55 9.55s-4.284 9.55-9.55 9.55c-5.266 0-9.55-4.284-9.55-9.55s4.284-9.55 9.55-9.55z"></path>
</symbol>

<symbol id="icon-cards" viewBox="0 0 31 32">
<path d="M29.567 15.002l-13.78-14.165c-0.543-0.558-1.254-0.837-1.966-0.837s-1.423 0.279-1.966 0.837l-7.547 7.755c-1.086 1.116-1.086 2.96 0 4.076l1.251 1.321h2.885l-2.693-2.804c-0.189-0.195-0.217-0.438-0.217-0.556s0.028-0.353 0.217-0.546l0.996-0.993 4.736 4.899h4.543l-7.007-7.238 4.279-4.415c0.189-0.194 0.409-0.231 0.523-0.231s0.335 0.024 0.523 0.218l13.781 14.163c0.189 0.195 0.218 0.419 0.218 0.537s-0.049 0.343-0.238 0.538l-0.781 0.784v2.965l2.225-2.266c1.085-1.118 1.105-2.927 0.018-4.043z"></path>
<path d="M23.101 15.317h-19.491c-1.535 0-2.848 1.271-2.848 2.849v7.577h25.084v-7.577c0-1.578-1.21-2.849-2.745-2.849zM7.574 23.163c-0.544 0-1.037-0.223-1.4-0.582-0.363 0.359-0.857 0.582-1.4 0.582-1.117 0-2.023-0.93-2.023-2.080 0-1.148 0.906-2.079 2.023-2.079 0.544 0 1.037 0.222 1.4 0.581 0.363-0.359 0.856-0.581 1.4-0.581 1.117 0 2.023 0.931 2.023 2.079 0 1.15-0.906 2.080-2.023 2.080z"></path>
<path d="M0.762 29.134c0 1.578 1.312 2.866 2.848 2.866h19.491c1.535 0 2.746-1.288 2.746-2.866v-0.168h-25.085v0.168z"></path>
</symbol>
<symbol id="icon-shop" viewBox="0 0 36 32">
<path d="M28.010 28.605c0 0.774 0.274 1.433 0.821 1.98s1.207 0.821 1.981 0.821c0.773 0 1.433-0.274 1.98-0.821s0.821-1.207 0.821-1.98-0.274-1.433-0.821-1.981c-0.547-0.547-1.207-0.82-1.98-0.82-0.774 0-1.434 0.274-1.981 0.82s-0.821 1.207-0.821 1.981z"></path>
<path d="M35.998 3.811c-0.277-0.277-0.605-0.416-0.985-0.416h-26.282c-0.015-0.102-0.048-0.288-0.099-0.558s-0.091-0.485-0.12-0.646c-0.029-0.16-0.084-0.353-0.164-0.58s-0.175-0.405-0.284-0.536c-0.109-0.132-0.255-0.244-0.438-0.34s-0.39-0.142-0.624-0.142h-5.602c-0.38 0-0.708 0.139-0.985 0.416s-0.416 0.606-0.416 0.985 0.139 0.708 0.416 0.985c0.277 0.277 0.606 0.416 0.985 0.416h4.464l3.873 18.010c-0.029 0.058-0.178 0.335-0.449 0.832s-0.485 0.93-0.645 1.302c-0.16 0.372-0.241 0.66-0.241 0.864 0 0.379 0.139 0.708 0.416 0.985 0.278 0.276 0.606 0.415 0.985 0.415h22.408c0.379 0 0.708-0.139 0.985-0.415 0.278-0.278 0.416-0.606 0.416-0.985s-0.138-0.708-0.416-0.985c-0.277-0.277-0.605-0.416-0.985-0.416h-20.132c0.35-0.7 0.525-1.167 0.525-1.4 0-0.146-0.018-0.307-0.055-0.482s-0.080-0.368-0.131-0.58c-0.051-0.211-0.084-0.368-0.098-0.47l22.847-2.67c0.364-0.044 0.664-0.2 0.897-0.471s0.35-0.58 0.35-0.93v-11.204c-0-0.379-0.138-0.708-0.416-0.985z"></path>
<path d="M8.403 28.605c0 0.774 0.273 1.433 0.821 1.98s1.207 0.821 1.981 0.821c0.773 0 1.433-0.274 1.98-0.821s0.821-1.207 0.821-1.98-0.273-1.433-0.821-1.981c-0.547-0.547-1.207-0.82-1.98-0.82s-1.434 0.274-1.981 0.82c-0.547 0.547-0.821 1.207-0.821 1.981z"></path>
</symbol>
<symbol id="icon-car" viewBox="0 0 46 32">
<path d="M1.598 21.178v-18.851c0-1.048 0.873-1.897 1.949-1.897h19.365c1.077 0 1.949 0.849 1.949 1.897v18.851c0 0.349-0.291 0.632-0.65 0.632h-21.964c-0.359 0-0.65-0.283-0.65-0.632zM17.236 27.636c0 2.173-1.81 3.934-4.043 3.934s-4.043-1.761-4.043-3.934c0-2.173 1.81-3.934 4.043-3.934s4.043 1.761 4.043 3.934zM15.214 27.636c0-1.086-0.905-1.967-2.022-1.967s-2.022 0.881-2.022 1.967c0 1.086 0.905 1.967 2.022 1.967s2.022-0.881 2.022-1.967zM9.71 23.702h-9.060c-0.359 0-0.65 0.283-0.65 0.632v1.918c0 0.349 0.291 0.632 0.65 0.632h7.262c0.19-1.266 0.846-2.384 1.798-3.183zM38.391 27.636c0 2.173-1.81 3.934-4.043 3.934s-4.043-1.761-4.043-3.934c0-2.173 1.81-3.934 4.043-3.934s4.043 1.761 4.043 3.934zM36.369 27.636c0-1.086-0.905-1.967-2.022-1.967s-2.022 0.881-2.022 1.967c0 1.086 0.905 1.967 2.022 1.967s2.022-0.881 2.022-1.967zM45.538 24.334v1.918c0 0.349-0.291 0.632-0.65 0.632h-5.261c-0.376-2.511-2.597-4.447-5.28-4.447s-4.904 1.936-5.281 4.447h-10.594c-0.19-1.266-0.846-2.384-1.798-3.183h10.045v-18.084c0-0.698 0.582-1.264 1.3-1.264h6.135c1.727 0 3.342 0.835 4.308 2.228l3.955 5.699c0.58 0.836 0.89 1.822 0.89 2.83v8.592h1.581c0.359 0 0.65 0.283 0.65 0.632zM38.946 12.426l-3.162-4.372c-0.122-0.168-0.32-0.268-0.531-0.268h-4.933c-0.359 0-0.65 0.283-0.65 0.632v4.372c0 0.349 0.291 0.632 0.65 0.632h8.096c0.526 0 0.834-0.577 0.531-0.996z"></path>
</symbol>

<symbol id="icon-close" viewBox="0 0 32 32">
<path d="M3.232 0l-3.232 3.232 12.433 12.433-12.122 12.122 3.232 3.233 12.122-12.122 11.811 11.811 3.232-3.232-11.811-11.811 12.121-12.121-3.232-3.232-12.121 12.121-12.433-12.433z"></path>
</symbol>

<symbol id="icon-checkmark" viewBox="0 0 32 32">
<path d="M27 4l-15 15-7-7-5 5 12 12 20-20z"></path>
</symbol>

<symbol id="icon-circle-down" viewBox="0 0 32 32">
<path d="M32 16c0-8.837-7.163-16-16-16s-16 7.163-16 16 7.163 16 16 16 16-7.163 16-16zM3 16c0-7.18 5.82-13 13-13s13 5.82 13 13-5.82 13-13 13-13-5.82-13-13z"></path>
<path d="M9.914 11.086l-2.829 2.829 8.914 8.914 8.914-8.914-2.828-2.828-6.086 6.086z"></path>
</symbol>

<symbol id="icon-vinok" viewBox="0 0 99 32">
<path d="M92.769 14.884c0.883-1.127 1.041-2.192 0.791-3.15 4.219-0.127 3.211-6.635 3.211-6.635-3.453 1.439-4.072 3.583-4.029 5.038-1.42-1.859-3.98-3.040-3.98-3.040-1.347 6.962 4.006 7.787 4.006 7.787z"></path>
<path d="M91.67 18.492c0.73 0.454 1.408 0.644 2.032 0.644 3.311 0 5.111-5.366 5.111-5.366-0.352-0.029-0.688-0.043-1.007-0.043-5.926-0-6.136 4.765-6.136 4.765z"></path>
<path d="M90.89 21.481c1.331-2.951-2-7.245-2-7.245-3.756 4.745-1.384 7.84-0.399 8.808-0.943 1-1.288 2.014-1.288 2.014 1.040 1.16 2.145 1.605 3.228 1.605 3.519 0 6.792-4.701 6.792-4.701-1.576-0.604-2.92-0.847-4.063-0.847-0.867 0-1.62 0.139-2.269 0.366z"></path>
<path d="M81.99 28.479c5.763-0.489 3.104-8.601 3.104-8.601-6.28 3.921-3.104 8.601-3.104 8.601z"></path>
<path d="M73.204 31.628c-0.37 0-0.698-0.267-0.762-0.645-0.070-0.42 0.214-0.818 0.635-0.89 8.296-1.392 14.028-4.614 17.031-9.577 2.147-3.548 2.47-7.358 2.364-9.931-0.116-2.796-0.744-4.745-0.751-4.765-0.132-0.405 0.089-0.842 0.495-0.975s0.842 0.088 0.975 0.495c0.028 0.087 0.701 2.173 0.826 5.18 0.074 1.767-0.058 3.491-0.391 5.122-0.418 2.049-1.157 3.959-2.195 5.674-3.247 5.365-9.337 8.831-18.097 10.301-0.044 0.007-0.088 0.010-0.129 0.010z"></path>
<path d="M92.645 6.135c2.518-3.81-3.81-6.135-3.81-6.135-0.647 5.813 3.81 6.135 3.81 6.135z"></path>
<path d="M6.045 14.884c-0.883-1.127-1.041-2.192-0.791-3.15-4.219-0.127-3.212-6.635-3.212-6.635 3.454 1.439 4.073 3.583 4.029 5.038 1.421-1.859 3.98-3.040 3.98-3.040 1.347 6.962-4.006 7.787-4.006 7.787z"></path>
<path d="M7.143 18.492c-0.73 0.454-1.408 0.644-2.032 0.644-3.311 0-5.111-5.366-5.111-5.366 0.352-0.029 0.688-0.043 1.007-0.043 5.926-0 6.135 4.765 6.135 4.765z"></path>
<path d="M7.924 21.481c-1.331-2.951 2-7.245 2-7.245 3.756 4.745 1.384 7.84 0.398 8.808 0.943 1 1.288 2.014 1.288 2.014-1.040 1.16-2.145 1.605-3.227 1.605-3.519 0-6.792-4.701-6.792-4.701 1.576-0.604 2.921-0.847 4.064-0.847 0.867 0 1.62 0.139 2.269 0.366z"></path>
<path d="M16.824 28.479c-5.763-0.489-3.104-8.601-3.104-8.601 6.28 3.921 3.104 8.601 3.104 8.601z"></path>
<path d="M25.609 31.628c0.37 0 0.698-0.267 0.762-0.645 0.070-0.42-0.214-0.818-0.635-0.89-8.296-1.392-14.028-4.614-17.031-9.577-2.147-3.548-2.47-7.358-2.364-9.931 0.117-2.796 0.745-4.745 0.752-4.765 0.132-0.405-0.089-0.842-0.495-0.975s-0.842 0.088-0.975 0.495c-0.028 0.087-0.701 2.173-0.826 5.18-0.074 1.767 0.058 3.491 0.391 5.122 0.418 2.049 1.157 3.959 2.195 5.674 3.248 5.365 9.337 8.831 18.097 10.301 0.044 0.007 0.087 0.010 0.129 0.010z"></path>
<path d="M6.168 6.135c-2.519-3.81 3.81-6.135 3.81-6.135 0.646 5.813-3.81 6.135-3.81 6.135z"></path>
</symbol>

<symbol id="icon-untitled" viewBox="0 0 39 32">
<path d="M0.125 27.448c0-0.928 0.743-1.666 1.652-1.848 1.664-0.333 2.94-1.102 3.828-2.308 0.967-1.312 1.531-3.313 1.694-6.003 0.057-0.948-0.721-1.72-1.671-1.72h-3.908c-0.95 0-1.72-0.77-1.72-1.72v-12.129c0-0.95 0.77-1.72 1.72-1.72h13.25c0.95 0 1.72 0.77 1.72 1.72v10.735c0 6.726-1.287 11.667-3.861 14.823-2.317 2.84-5.978 4.402-10.985 4.686-0.949 0.054-1.72-0.723-1.72-1.673v-2.843zM21.798 27.448c0-0.928 0.743-1.666 1.652-1.848 1.664-0.333 2.94-1.102 3.828-2.308 0.967-1.312 1.531-3.313 1.694-6.003 0.057-0.948-0.721-1.72-1.671-1.72h-3.908c-0.95 0-1.72-0.77-1.72-1.72v-12.129c0-0.95 0.77-1.72 1.72-1.72h13.25c0.95 0 1.72 0.77 1.72 1.72v10.735c0 6.726-1.287 11.667-3.861 14.823-2.317 2.84-5.978 4.402-10.985 4.686-0.949 0.054-1.72-0.723-1.72-1.673v-2.843z"></path>
</symbol>

<symbol id="icon-pacman" viewBox="0 0 32 32">
<path d="M30.148 5.588c-2.934-3.42-7.288-5.588-12.148-5.588-8.837 0-16 7.163-16 16s7.163 16 16 16c4.86 0 9.213-2.167 12.148-5.588l-10.148-10.412 10.148-10.412zM22 3.769c1.232 0 2.231 0.999 2.231 2.231s-0.999 2.231-2.231 2.231-2.231-0.999-2.231-2.231c0-1.232 0.999-2.231 2.231-2.231z"></path>
</symbol>
<symbol id="icon-mascard" viewBox="0 0 50 32">
<path d="M34.261 0.483c-3.401 0-6.684 1.112-9.372 3.152-2.688-2.040-5.971-3.152-9.372-3.152-8.556 0-15.517 6.961-15.517 15.517s6.961 15.517 15.517 15.517c3.401 0 6.684-1.112 9.372-3.152 2.688 2.040 5.971 3.152 9.372 3.152 8.556 0 15.517-6.961 15.517-15.517s-6.961-15.517-15.517-15.517zM24.889 7.582c0.481 0.536 0.915 1.112 1.299 1.721h-2.597c0.383-0.608 0.818-1.185 1.299-1.721zM22.239 12.219h5.3c0.238 0.757 0.403 1.533 0.494 2.322h-6.288c0.091-0.79 0.256-1.565 0.494-2.322zM21.745 17.458h6.288c-0.091 0.789-0.256 1.565-0.494 2.322h-5.3c-0.238-0.757-0.404-1.533-0.494-2.322zM24.889 24.417c-0.481-0.536-0.916-1.112-1.299-1.721h2.597c-0.383 0.608-0.818 1.185-1.298 1.721zM34.261 28.599c-2.586 0-5.087-0.79-7.186-2.25 1.203-1.345 2.173-2.899 2.844-4.567 0.74-1.84 1.115-3.786 1.115-5.783s-0.375-3.942-1.115-5.783c-0.67-1.668-1.641-3.222-2.844-4.567 2.1-1.46 4.601-2.25 7.186-2.25 6.948 0 12.6 5.652 12.6 12.6s-5.652 12.6-12.6 12.6z"></path>
</symbol>
</defs>
</svg>
